<!--?xml version="1.0" encoding="utf-8"?-->
<!-- Generator: Adobe Illustrator 24.1.1, SVG Export Plug-In . SVG Version: 6.00 Build 0)  -->
<svg version="1.1" id="_x31_0" xmlns="http://www.w3.org/2000/svg" xmlns:xlink="http://www.w3.org/1999/xlink" x="0px" y="0px" viewBox="0 0 512 512" style="width: 256px; height: 256px; opacity: 1;" xml:space="preserve">
<style type="text/css">
	.st0{fill:#374149;}
</style>
<g>
	<path class="st0" d="M490.742,146.706v-41.246c0.008-7.195-3.141-13.676-8-18.114l-0.024-0.023
		c-4.332-3.93-10.14-6.328-16.441-6.328H197.614l-1.723-5.637l-0.027-0.082l-0.992-3.102l-2.254-7.461l-0.015-0.054l-3.906-12.535
		H46.574C20.879,52.142,0.016,72.99,0,98.631v314.668c0,1.347,0.102,2.629,0.234,3.898H0.222c0.004,0.054,0.016,0.09,0.02,0.144
		c0.011,0.102,0.008,0.219,0.019,0.321l0.023-0.004c0.114,1.726,0.348,3.336,0.637,4.785l0.024,0.11
		c0.218,1.016,0.476,2.039,0.793,3.106H1.734c0.012,0.05,0.023,0.07,0.035,0.121c0.015,0.043,0.019,0.086,0.035,0.133l0.008-0.004
		c0.297,1.086,0.594,1.997,0.859,2.719l-0.008,0.004c0.012,0.027,0.023,0.05,0.031,0.074c0.016,0.031,0.031,0.09,0.039,0.121
		l0.016-0.004c1.625,4.656,3.922,8.934,6.835,12.774l-0.015,0.011c0.039,0.051,0.07,0.082,0.106,0.137
		c0.015,0.016,0.023,0.039,0.039,0.059l0.007-0.004c0.618,0.828,1.157,1.434,1.645,1.988l0.386,0.492l0.406,0.52l0.805,0.703
		l0.82,0.878l0.434,0.465l0.387,0.286l0.207,0.21l0.094,0.094l0.039,0.035c1.762,1.671,3.656,3.133,5.637,4.449l0,0
		c0.003,0.004,0.011,0.008,0.011,0.012c0.676,0.445,1.965,1.305,3.649,2.23l0.172,0.09l1.621,0.817l0.114,0.058l0.062,0.027
		c1.074,0.496,2.386,1.16,4.078,1.774l-0.004,0.008c0.039,0.011,0.066,0.019,0.106,0.035c0.008,0,0.016,0.003,0.024,0.007
		c1.133,0.418,2.062,0.699,2.82,0.902l0.289,0.145l0.692,0.187c1.226,0.328,2.629,0.657,4.277,0.969l0.321,0.058l0.285,0.032
		c0.274,0.015,0.988,0.16,2.137,0.285l0.047,0.004c1.492,0.141,3.246,0.316,5.293,0.316h418.918
		c25.715-0.011,46.5-20.898,46.508-46.578v-5.402V146.706h-17.703H490.742z M36.34,428.233c-0.707-0.496-1.356-0.996-1.992-1.562
		l-1.278-1.282l-0.855-1.066c-1.207-1.492-2.133-3.27-2.703-5.121l-0.352-1.137l-0.285-1.066l-0.286-1.848l-0.144-1.851V98.631
		c0-9.954,8.109-18.062,18.129-18.062h5.48h115.703l2.34,7.538l7.039,23.11l2.347,7.539l8.535,27.95
		c0.926,2.773,1.989,5.332,3.34,7.82l1.211,1.992l0.214,0.286c0.5,0.781,1.066,1.566,1.637,2.273
		c0.562,0.786,1.211,1.493,1.848,2.203c0.641,0.856,1.418,1.711,2.27,2.493c0.718,0.781,1.496,1.492,2.347,2.129
		c1.141,0.93,2.278,1.781,3.489,2.562c1.207,0.855,2.492,1.562,3.77,2.207c2.488,1.277,5.05,2.343,7.75,3.054
		c0.778,0.215,1.492,0.359,2.278,0.5l0.57,0.145l0.992,0.21l0.355,0.07l0.637,0.07l1.141,0.145l0.641,0.07h0.214
		c0.852,0.14,1.778,0.14,2.699,0.214h214.543h18.988h22.254c-7.317,5.688-14.715,11.52-22.254,17.492
		c-71.25,55.891-151.613,119.184-210.558,166.114c-0.93,0.785-1.855,1.496-2.778,2.207c-22.679,18.062-42.098,33.633-56.32,45.297
		c-7.11,5.832-12.946,10.668-17.347,14.367c-1.422,1.207-2.63,2.274-3.699,3.199c-2.274,1.988-3.84,3.41-4.766,4.48l-2.839,3.13
		H52.125h-5.55c-0.848,0-1.562-0.074-2.414-0.215l-0.426-0.07c-0.715-0.074-1.422-0.285-2.133-0.43l-1.422-0.496l-1.356-0.566
		l-1.277-0.645L36.34,428.233z M449.778,111.217c5.05,0,9.175,4.125,9.175,9.176v33.422H226.492c-0.785,0-1.641-0.07-2.418-0.141
		l-0.359-0.07l-1.989-0.57h-0.637c-4.339-1.352-7.973-4.055-10.39-7.821l-0.351-0.5v-0.07l-0.426-0.71
		c-0.57-1.066-1.07-2.207-1.492-3.558l-8.535-27.805l-0.43-1.352H449.778z M171.313,430.58c1.347-1.206,3.125-2.703,5.258-4.55
		c0.781-0.711,1.637-1.422,2.562-2.203c13.652-11.45,39.039-31.93,70.965-57.32c3.199-2.559,6.402-5.118,9.742-7.75
		c56.886-45.367,131.77-104.25,199.113-157.082c8.387-6.617,16.637-13.086,24.68-19.343v230.969
		c0,10.027-8.114,18.137-18.141,18.137H171.313V430.58z" style="fill: rgb(0, 0, 0);"></path>
</g>
</svg>
