<!--?xml version="1.0" encoding="utf-8"?-->
<!-- Generator: Adobe Illustrator 18.1.1, SVG Export Plug-In . SVG Version: 6.00 Build 0)  -->

<svg version="1.1" id="_x31_0" xmlns="http://www.w3.org/2000/svg" xmlns:xlink="http://www.w3.org/1999/xlink" x="0px" y="0px" viewBox="0 0 512 512" style="width: 256px; height: 256px; opacity: 1;" xml:space="preserve">
<style type="text/css">
	.st0{fill:#374149;}
</style>
<g>
	<path class="st0" d="M459.871,8.898L116.305,37.226v329.406c-9.89-3.547-20.722-5.508-32.086-5.508
		C37.707,361.125,0,393.867,0,434.266c0,40.39,37.707,73.133,84.218,73.133c46.516,0,84.219-32.742,84.219-73.133V108.813
		l291.43-24.024v223.485c-9.89-3.547-20.722-5.508-32.09-5.508c-46.512,0-84.219,32.742-84.219,73.133
		c0,40.398,37.707,73.141,84.219,73.141c46.515,0,84.222-32.742,84.222-73.141V80.492V4.602L459.871,8.898z" style="fill: rgb(0, 0, 0);"></path>
</g>
</svg>
