<!--?xml version="1.0" encoding="utf-8"?-->
<!-- Generator: Adobe Illustrator 24.1.1, SVG Export Plug-In . SVG Version: 6.00 Build 0)  -->
<svg version="1.1" id="_x31_0" xmlns="http://www.w3.org/2000/svg" xmlns:xlink="http://www.w3.org/1999/xlink" x="0px" y="0px" viewBox="0 0 512 512" style="width: 256px; height: 256px; opacity: 1;" xml:space="preserve">
<style type="text/css">
	.st0{fill:#374149;}
</style>
<g>
	<path class="st0" d="M37.778,308.942l9.91,2.945l-22.953,23.836l-11.453,11.898l8.258,14.301l25.515,44.172l8.242,14.274l16-3.942
		L93.344,411l10.21-2.438l-7.918,32.141l-3.934,15.996l14.262,8.246l44.11,25.511l14.27,8.254l11.902-11.414l16.437-15.758
		l7.551-7.141l9.25,31.793L214.086,512h16.469h50.954h16.496l4.586-15.84l6.36-21.98l2.922-9.84l23.946,22.957l11.902,11.414
		l14.27-8.254l44.11-25.511l14.262-8.246l-3.938-15.996l-5.418-22l-2.43-10.187l32.195,7.91l16.019,3.942l8.234-14.293
		l25.446-44.176l8.222-14.274l-11.414-11.882l-15.742-16.383l-7.168-7.566l31.793-9.203l15.84-4.586v-16.492v-51.02V214
		l-15.84-4.586l-21.781-6.305l-10.035-2.981l22.934-23.867l11.414-11.882l-8.222-14.274l-25.446-44.176l-8.234-14.293l-16.019,3.942
		l-22.098,5.43l-10.16,2.422l7.91-32.129l3.938-15.996l-14.262-8.246l-44.11-25.511l-14.27-8.25l-11.902,11.41l-16.446,15.766
		l-7.582,7.168l-9.199-31.797L298.004,0h-16.496h-50.954h-16.469l-4.602,15.813l-6.324,21.73l-3.011,10.082l-23.902-22.918
		l-11.902-11.41l-14.27,8.25l-44.11,25.511l-14.262,8.246l3.934,15.996l5.434,22.07l2.418,10.129l-32.191-7.922l-16-3.942
		l-8.242,14.274l-25.515,44.175l-8.258,14.298l11.453,11.898l15.718,16.324l7.211,7.594l-31.82,9.215L0,214v16.492v51.02v16.492
		l15.844,4.586L37.778,308.942z M66.89,214.926c1.36-6.07,2.973-12.011,4.848-17.886c0.515-1.618,0.129-3.426-1.035-4.656
		l-30.16-31.325l25.511-44.175l42.238,10.398l1.157,0.152c1.293,0,2.531-0.562,3.43-1.508c4.129-4.586,8.461-8.914,13.042-13.046
		c1.297-1.161,1.809-2.902,1.422-4.582l-10.398-42.242l44.113-25.507l31.387,30.094c0.871,0.871,2.007,1.32,3.191,1.32l1.457-0.222
		c5.817-1.867,11.758-3.488,17.828-4.844c1.68-0.386,3.035-1.613,3.489-3.23l12.144-41.718h50.954l12.082,41.718
		c0.512,1.618,1.871,2.844,3.485,3.23c6.07,1.356,12.078,2.977,17.89,4.844l1.43,0.222c1.184,0,2.348-0.449,3.219-1.32l31.39-30.094
		l44.113,25.507l-10.398,42.242c-0.39,1.68,0.126,3.422,1.418,4.582c4.523,4.133,8.91,8.461,13.046,13.046
		c0.899,0.946,2.137,1.508,3.399,1.508l1.125-0.152l42.301-10.398l25.449,44.175l-30.098,31.325c-1.164,1.23-1.55,3.038-1.035,4.656
		c1.875,5.875,3.489,11.816,4.778,17.886c0.39,1.68,1.617,3.035,3.234,3.489l41.718,12.078v51.02l-41.718,12.078
		c-1.618,0.458-2.844,1.809-3.234,3.489c-1.289,6.07-2.902,12.007-4.778,17.886c-0.515,1.618-0.129,3.426,1.035,4.656l30.098,31.325
		l-25.449,44.175l-42.301-10.398l-1.125-0.152c-1.262,0-2.5,0.562-3.399,1.508c-4.136,4.586-8.523,8.914-13.046,13.046
		c-1.293,1.16-1.809,2.902-1.418,4.586l10.398,42.238l-44.113,25.511l-31.39-30.098c-0.871-0.871-2.035-1.324-3.219-1.324
		l-1.43,0.226c-5.813,1.867-11.82,3.485-17.89,4.844c-1.614,0.386-2.973,1.613-3.485,3.226l-12.082,41.722h-50.954l-12.144-41.722
		c-0.454-1.614-1.809-2.84-3.489-3.226c-6.07-1.359-12.011-2.977-17.828-4.844l-1.457-0.226c-1.184,0-2.32,0.453-3.191,1.324
		l-31.387,30.098l-44.113-25.511l10.398-42.238c0.386-1.684-0.126-3.426-1.422-4.586c-4.582-4.133-8.914-8.461-13.042-13.046
		c-0.898-0.946-2.137-1.508-3.43-1.508l-1.157,0.152l-42.238,10.398l-25.511-44.175l30.16-31.325c1.164-1.23,1.55-3.038,1.035-4.656
		c-1.875-5.879-3.488-11.816-4.848-17.886c-0.32-1.68-1.546-3.031-3.226-3.489l-41.722-12.078v-51.02l41.722-12.078
		C65.344,217.961,66.57,216.606,66.89,214.926z" style="fill: rgb(0, 0, 0);"></path>
	<path class="st0" d="M255.981,354.141c54.113,0,98.14-44.024,98.14-98.141c0-54.114-44.027-98.137-98.14-98.137
		c-54.094,0-98.102,44.023-98.102,98.137C157.879,310.117,201.886,354.141,255.981,354.141z M255.981,332.199
		c-42.066,0-76.161-34.129-76.161-76.199c0-42.066,34.094-76.195,76.161-76.195c42.105,0,76.199,34.129,76.199,76.195
		C332.18,298.07,298.086,332.199,255.981,332.199z" style="fill: rgb(0, 0, 0);"></path>
</g>
</svg>
