<!--?xml version="1.0" encoding="utf-8"?-->
<!-- Generator: Adobe Illustrator 24.1.1, SVG Export Plug-In . SVG Version: 6.00 Build 0)  -->
<svg version="1.1" id="_x31_0" xmlns="http://www.w3.org/2000/svg" xmlns:xlink="http://www.w3.org/1999/xlink" x="0px" y="0px" viewBox="0 0 512 512" style="width: 256px; height: 256px; opacity: 1;" xml:space="preserve">
<style type="text/css">
	.st0{fill:#374149;}
</style>
<g>
	<path class="st0" d="M481.863,295.287v-0.035c0.594-3.5,1.121-7.07,1.574-10.606c1.191-9.378,1.82-18.934,1.82-28.629
		c0-126.637-102.66-229.262-229.258-229.262c-17.886,0-35.246,2.102-51.946,5.988c-21.664-20.301-50.75-32.726-82.777-32.726
		C54.285,0.018,0,54.302,0,121.26c0,32.027,12.461,61.148,32.726,82.812c-3.886,16.696-5.984,34.059-5.984,51.946
		c0,126.598,102.656,229.258,229.258,229.258c12.738,0,25.199-1.086,37.309-3.117c3.922-0.629,7.77-1.363,11.586-2.203
		c1.016-0.211,2.031-0.422,3.047-0.664c21.664,20.266,50.75,32.691,82.777,32.691c66.993,0,121.282-54.289,121.282-121.246
		c0-32.027-12.461-61.113-32.726-82.812C480.254,303.756,481.094,299.522,481.863,295.287z M163.309,329.518
		c-2.394-5.078-3.61-9.672-3.61-13.649c0-13.246,9.676-27.324,27.614-27.324c11.961,0,15.566,4.153,28.984,19.598
		c4.578,5.379,18.446,21.676,46.789,21.676c16.422,0,33.406-8.09,33.406-21.625c0-11.782-5.324-16.434-54.179-31.672
		c-45.465-14.047-68.114-35.305-71.27-66.894c-0.286-2.496-0.438-5.258-0.438-8.157c0-43.054,31.957-71.808,81.414-73.254
		c1.301-0.031,2.657-0.062,3.981-0.062c22.23,0,47.981,6.926,67.203,18.074c13.23,7.668,22.054,16.574,25.582,25.797
		c1.149,2.965,1.734,6.027,1.734,9.082c0,14.906-12.242,27.031-27.289,27.031c-5.297,0-10.656-0.824-22.699-10.957
		c-15.214-12.382-26.801-16.785-44.242-16.785c-26.703,0-29.586,14.102-29.586,20.164c0,12.656,6.176,17.836,49.602,30.168
		c53.27,15.328,75.996,37.961,75.996,75.687c0,50.832-45.922,77.43-91.285,77.43c-20.906,0-41.238-5.309-58.805-15.351
		C184.68,358.514,170.137,343.943,163.309,329.518z" style="fill: rgb(0, 0, 0);"></path>
</g>
</svg>
